<svg xmlns="http://www.w3.org/2000/svg" width="20" height="20" viewBox="0 0 20 20"><path fill="#fff" d="M18.714 6.967c0-1.417-.493-2.579-1.304-3.491.13-.329.566-1.655-.125-3.446 0 0-1.06-.352-3.485 1.332-1.014-.289-2.102-.431-3.179-.437-1.081.006-2.164.148-3.178.437-2.425-1.683-3.491-1.332-3.491-1.332-.691 1.791-.255 3.117-.125 3.446-.81.906-1.303 2.068-1.303 3.491 0 4.987 2.964 6.103 5.78 6.432-.362.323-.691.901-.804 1.739-.726.334-2.562.907-3.695-1.082 0 0-.669-1.252-1.944-1.343 0 0-1.235-.017-.085.794 0 0 .833.402 1.411 1.904 0 0 .748 2.533 4.278 1.746l.017 2.215c0 .258-.13.548-.46.628l7.184-.01c-.322-.083-.445-.37-.445-.624 0-.425.017-1.831.017-3.57 0-1.213-.408-2.006-.861-2.408 2.828-.324 5.797-1.424 5.797-6.421z"/></svg>