<svg xmlns="http://www.w3.org/2000/svg" width="143" height="40" viewBox="0 0 143 40"><g fill="#122E52"><path d="M94.038 13.275h-12.257l-4.818 5.853-2.289 2.946v-22.073h-8.585v39.331h8.585v-7.03l2.958-2.899 5.815 9.929h11.164l-10.732-15.829zM31.276 30.691l-4.165-17.65h-9.943000000000001l-4.165 17.65-3.215-17.65h-8.918l6.544 25.98h11.503l3.221-13.632 3.223 13.632h11.503l6.546-25.98h-8.919zM141.647 20.76l.478-7.557h-7.854l-.574 2.798c-1.805-1.962-4.047-3.585-7.996-3.585-7.144 0-11.046 4.762-11.046 13.792 0 9.032 3.902 13.792 11.046 13.792 3.949 0 6.191-1.618 7.996-3.58l.574 2.796h7.854l-.478-7.557v-10.899zm-8.565 8.788c-1.097 1.472-2.811 2.454-5.05 2.454-2.567 0-4.615-1.72-4.615-5.794 0-4.073 2.047-5.792 4.615-5.792 2.239 0 3.953.983 5.05 2.455v6.677z"/><ellipse cx="52.627" cy="5.206" rx="4.908" ry="5.059"/><path d="M47.721 13.123v26.267999999999997h12.299v-5.511h-3.855v-15.221h3.855v-5.536h-3.713z"/><ellipse cx="105.458" cy="5.206" rx="4.91" ry="5.059"/><path d="M98.065 13.123v5.536h3.853v15.221h-3.853v5.511h12.3v-26.267999999999997h-8.586z"/></g></svg>