<?xml version="1.0" encoding="utf-8"?>
<!-- Generator: Adobe Illustrator 16.0.0, SVG Export Plug-In . SVG Version: 6.00 Build 0)  -->
<!DOCTYPE svg PUBLIC "-//W3C//DTD SVG 1.1//EN" "http://www.w3.org/Graphics/SVG/1.1/DTD/svg11.dtd">
<svg version="1.1" id="Layer_1" xmlns="http://www.w3.org/2000/svg" xmlns:xlink="http://www.w3.org/1999/xlink" x="0px" y="0px"
	 width="20px" height="20px" viewBox="0 0 20 20" enable-background="new 0 0 20 20" xml:space="preserve">
<path fill="#FFFFFF" d="M18.714,6.967c0-1.417-0.493-2.579-1.304-3.491c0.13-0.329,0.566-1.655-0.125-3.446
	c0,0-1.06-0.352-3.485,1.332c-1.014-0.289-2.102-0.431-3.179-0.437C9.54,0.931,8.457,1.073,7.443,1.362
	C5.018-0.321,3.952,0.03,3.952,0.03C3.261,1.821,3.697,3.147,3.827,3.476C3.017,4.382,2.524,5.544,2.524,6.967
	c0,4.987,2.964,6.103,5.78,6.432c-0.362,0.323-0.691,0.901-0.804,1.739c-0.726,0.334-2.562,0.907-3.695-1.082
	c0,0-0.669-1.252-1.944-1.343c0,0-1.235-0.017-0.085,0.794c0,0,0.833,0.402,1.411,1.904c0,0,0.748,2.533,4.278,1.746
	c0.005,1.088,0.017,1.904,0.017,2.215c0,0.258-0.13,0.548-0.46,0.628l7.184-0.01c-0.322-0.083-0.445-0.37-0.445-0.624
	c0-0.425,0.017-1.831,0.017-3.57c0-1.213-0.408-2.006-0.861-2.408C15.745,13.064,18.714,11.964,18.714,6.967z"/>
</svg>

