<?xml version="1.0" encoding="utf-8"?>
<!-- Generator: Adobe Illustrator 16.0.0, SVG Export Plug-In . SVG Version: 6.00 Build 0)  -->
<!DOCTYPE svg PUBLIC "-//W3C//DTD SVG 1.1//EN" "http://www.w3.org/Graphics/SVG/1.1/DTD/svg11.dtd">
<svg version="1.1" id="Layer_1" xmlns="http://www.w3.org/2000/svg" xmlns:xlink="http://www.w3.org/1999/xlink" x="0px" y="0px"
	 width="22.569px" height="24.053px" viewBox="0 0 22.569 24.053" enable-background="new 0 0 22.569 24.053" xml:space="preserve">
<g>
	<path d="M6.792,20.337H3.156V8.215h3.637V20.337z M20.127,20.337H16.49v-6.476c0-1.688-0.602-2.528-1.792-2.528
		c-0.945,0-1.544,0.47-1.844,1.413c0,1.529,0,7.591,0,7.591H9.217c0,0,0.049-10.911,0-12.123h2.871l0.221,2.424h0.076
		c0.745-1.213,1.937-2.034,3.57-2.034c1.244,0,2.249,0.346,3.016,1.213c0.773,0.869,1.156,2.036,1.156,3.674V20.337z"/>
</g>
<g>
	<ellipse cx="4.974" cy="5.184" rx="1.879" ry="1.819"/>
</g>
</svg>
