<?xml version="1.0" encoding="utf-8"?>
<!-- Generator: Adobe Illustrator 16.0.0, SVG Export Plug-In . SVG Version: 6.00 Build 0)  -->
<!DOCTYPE svg PUBLIC "-//W3C//DTD SVG 1.1//EN" "http://www.w3.org/Graphics/SVG/1.1/DTD/svg11.dtd">
<svg version="1.1" id="Layer_1" xmlns="http://www.w3.org/2000/svg" xmlns:xlink="http://www.w3.org/1999/xlink" x="0px" y="0px"
	 width="22.569px" height="24.053px" viewBox="0 0 22.569 24.053" enable-background="new 0 0 22.569 24.053" xml:space="preserve">
<path fill="#231F20" d="M17.802,15.688c-1.591,0-2.957,0.92-3.637,2.247l-6.096-2.622c0.236-0.517,0.375-1.086,0.375-1.69
	c0-0.809-0.243-1.558-0.648-2.194l7.23-4.501c0.751,0.963,1.908,1.595,3.222,1.595c2.262,0,4.102-1.839,4.102-4.101
	s-1.84-4.101-4.102-4.101c-2.261,0-4.1,1.84-4.1,4.101c0,0.589,0.13,1.146,0.354,1.653l-7.349,4.577
	c-0.735-0.696-1.721-1.13-2.81-1.13c-2.261,0-4.101,1.84-4.101,4.101c0,2.261,1.839,4.101,4.101,4.101
	c1.294,0,2.436-0.614,3.188-1.553l6.283,2.701c-0.068,0.296-0.112,0.601-0.112,0.917c0,2.261,1.84,4.101,4.101,4.101
	c2.262,0,4.102-1.84,4.102-4.101S20.063,15.688,17.802,15.688z M18.247,1.32c1.71,0,3.102,1.391,3.102,3.101
	c0,1.709-1.392,3.101-3.102,3.101c-1.709,0-3.1-1.391-3.1-3.101C15.147,2.711,16.538,1.32,18.247,1.32z M4.343,16.723
	c-1.709,0-3.101-1.391-3.101-3.101s1.391-3.101,3.101-3.101c1.71,0,3.101,1.391,3.101,3.101S6.053,16.723,4.343,16.723z
	 M17.802,22.889c-1.71,0-3.101-1.391-3.101-3.101s1.391-3.101,3.101-3.101s3.102,1.391,3.102,3.101S19.512,22.889,17.802,22.889z"/>
</svg>
